<svg width="24" height="24" viewBox="0 0 554 554" fill="none" xmlns="http://www.w3.org/2000/svg">
<path d="M258.666 0.801794C201.866 6.00179 154.4 23.6018 111.066 55.7351C95.4665 67.3351 64.1331 99.0684 53.4665 114.002C17.7331 164.802 0.799805 217.068 0.799805 277.335C0.799805 337.602 17.7331 389.868 53.4665 440.668C64.1331 455.602 95.4665 487.335 111.066 498.935C149.066 527.068 190.4 544.135 238 551.468C257.466 554.402 296.666 554.535 316.533 551.468C375.466 542.668 426.266 518.002 468.533 477.335C506.933 440.535 533.066 395.602 546 344.002C556.667 301.735 556.667 252.802 546 210.668C531.733 153.868 502.533 106.535 457.6 67.2018C419.333 33.7351 368.266 10.5351 317.066 3.33513C301.733 1.20179 269.6 -0.131539 258.666 0.801794ZM319.466 20.0018C361.466 27.0684 399.6 43.2018 433.333 68.0018C447.866 78.6684 476 106.802 486.666 121.335C511.6 155.202 527.333 192.535 534.8 235.468C539.066 259.735 539.066 294.935 534.8 319.202C527.333 362.135 511.6 399.468 486.666 433.335C476 447.868 447.866 476.002 433.333 486.668C339.866 555.468 212.666 555.202 120.666 486.002C107.066 475.735 84.6665 454.268 74.2665 441.335C33.3331 390.668 11.8665 322.002 17.1998 258.535C22.5331 194.935 46.9331 140.402 89.8665 96.1351C134 50.9351 189.6 24.0018 252.933 17.3351C269.733 15.6018 300.933 16.8018 319.466 20.0018Z" fill=""/>
<path d="M272 120.003C269.333 122.669 269.333 124.403 269.333 196.003V269.336H196C124.4 269.336 122.667 269.336 120 272.003C116.667 275.336 116.667 279.336 120 282.669C122.667 285.336 124.4 285.336 196 285.336H269.333V358.669C269.333 430.269 269.333 432.003 272 434.669C273.467 436.136 275.867 437.336 277.333 437.336C278.8 437.336 281.2 436.136 282.667 434.669C285.333 432.003 285.333 430.269 285.333 358.669V285.336H358.667C430.267 285.336 432 285.336 434.667 282.669C436.133 281.203 437.333 278.803 437.333 277.336C437.333 275.869 436.133 273.469 434.667 272.003C432 269.336 430.267 269.336 358.667 269.336H285.333V196.003C285.333 124.403 285.333 122.669 282.667 120.003C281.2 118.536 278.8 117.336 277.333 117.336C275.867 117.336 273.467 118.536 272 120.003Z" fill=""/>
</svg>
