<svg width="24" height="24" viewBox="0 0 297 179" fill="none" xmlns="http://www.w3.org/2000/svg">
<path d="M3.66633 3.33281C-3.40034 10.2661 -5.26701 7.7328 70.733 94.6661C109.4 138.933 142.6 176.133 144.733 177.333C147.933 179.066 148.733 179.066 152.066 177.333C154.066 176.133 187.266 139.066 225.933 94.6661C301.933 7.7328 300.066 10.2661 293 3.33281C288.733 -1.0672 283.666 -0.933868 279.266 3.59947C277.266 5.7328 247.266 39.8661 212.466 79.5995C177.8 119.466 149 151.999 148.333 151.999C147.666 151.999 118.866 119.466 84.1997 79.5995C49.3997 39.8661 19.3997 5.7328 17.3997 3.59947C12.9997 -0.933868 7.93299 -1.0672 3.66633 3.33281Z" fill="black"/>
</svg>
