<svg width="24" height="24" viewBox="0 0 553 566" fill="none" xmlns="http://www.w3.org/2000/svg">
<path d="M250.334 2.93329C208.2 11.8666 172.2 44.5333 159 85.4666C153.934 101.467 152.334 114.933 152.334 143.6V167.333H101.667C67.0002 167.333 50.0668 167.867 47.8002 168.8C46.0668 169.733 43.9335 171.867 43.1335 173.867C41.9335 176.933 0.333496 549.067 0.333496 556.933C0.333496 558.667 1.5335 561.467 3.00016 563.067L5.80016 566H276.333H546.867L549.667 563.067C551.134 561.467 552.333 558.8 552.333 556.933C552.333 549.2 510.734 176.933 509.534 173.867C508.734 171.867 506.6 169.733 504.867 168.8C502.6 167.867 485.667 167.333 451 167.333H400.334V143.6C400.334 130.533 399.667 114.933 399 108.8C392.334 56.4 352.867 13.3333 301.4 2.79999C288.467 0.133301 263 0.133301 250.334 2.93329ZM305 24.6666C338.467 35.2 363.134 59.0667 374.6 92C378.067 102.267 378.2 103.867 378.734 134.933L379.267 167.333H276.333H173.4L173.934 134.933C174.467 102.8 174.467 102.667 178.6 90.9333C191.267 55.0667 220.2 30 257.8 22C268.067 19.8666 294.467 21.3333 305 24.6666ZM152.334 215.867C152.334 241.333 152.467 243.2 155.133 246.533C158.734 251.067 166.6 251.467 170.467 247.2C172.734 244.667 173 241.733 173.4 216.533L173.8 188.667H276.333H378.867L379.267 216.533C379.667 241.733 379.934 244.667 382.2 247.2C386.067 251.467 393.934 251.067 397.534 246.533C400.2 243.2 400.334 241.333 400.334 215.867V188.667H445.667H491L491.534 191.6C491.934 193.333 500.734 271.733 511 366C521.267 460.267 530.067 539.333 530.467 541.6L531.134 546H276.333H21.5335L22.2002 541.6C22.6002 539.333 31.4002 460.267 41.6668 366C51.9335 271.733 60.7335 193.333 61.0002 191.6L61.6668 188.667H107H152.334V215.867Z" fill=""/>
</svg>
