<svg width="25" height="23" viewBox="0 0 25 23" fill="none" xmlns="http://www.w3.org/2000/svg">
<path fill-rule="evenodd" clip-rule="evenodd" d="M8.16111 0.552786C8.3305 0.214002 8.67676 0 9.05553 0H15.3195C15.6982 0 16.0445 0.214002 16.2139 0.552786L17.5361 3.19721C17.7055 3.536 18.0518 3.75 18.4305 3.75H23.375C23.9273 3.75 24.375 4.19772 24.375 4.75V21.5C24.375 22.0523 23.9273 22.5 23.375 22.5H1C0.447715 22.5 0 22.0523 0 21.5V4.75C0 4.19772 0.447715 3.75 1 3.75H5.94447C6.32324 3.75 6.6695 3.536 6.83889 3.19721L8.16111 0.552786ZM12.1875 17.8125C14.7763 17.8125 16.875 15.7139 16.875 13.125C16.875 10.5361 14.7763 8.4375 12.1875 8.4375C9.59867 8.4375 7.5 10.5361 7.5 13.125C7.5 15.7139 9.59867 17.8125 12.1875 17.8125Z" fill="#DEE2E8"/>
</svg>
