<?xml version="1.0" encoding="iso-8859-1"?>
<!-- Generator: Adobe Illustrator 16.0.0, SVG Export Plug-In . SVG Version: 6.00 Build 0)  -->
<!DOCTYPE svg PUBLIC "-//W3C//DTD SVG 1.1//EN" "http://www.w3.org/Graphics/SVG/1.1/DTD/svg11.dtd">
<svg version="1.1" id="Capa_1" xmlns="http://www.w3.org/2000/svg" xmlns:xlink="http://www.w3.org/1999/xlink" x="0px" y="0px"
	 width="401.527px" height="401.527px" viewBox="0 0 401.527 401.527" style="enable-background:new 0 0 401.527 401.527;"
	 xml:space="preserve">
<g>
	<path d="M275.155,25.074l10.064-13.872c8.84-12.172,25.908-14.824,38.012-5.984l32.98,24.072
		c12.104,8.84,14.756,25.908,5.916,38.012l-10.812,14.756C331.188,57.238,305.075,37.45,275.155,25.074z M50.211,82.059
		c20.128-24.82,46.24-44.608,76.16-56.984l-10.064-13.872C107.468-0.97,90.399-3.622,78.295,5.218l-32.98,24.072
		c-12.104,8.84-14.756,25.908-5.916,38.012L50.211,82.059z M329.964,204.051c0,71.243-57.957,129.199-129.2,129.199
		c-71.244,0-129.2-57.956-129.2-129.199c0-71.244,57.957-129.2,129.2-129.2C272.007,74.851,329.964,132.807,329.964,204.051z
		 M285.763,204.051c0-5.631-4.568-10.2-10.199-10.2h-61.275c-2.883-3.815-7.309-6.338-12.375-6.685l-25.357-70.421
		c-1.271-3.529-5.161-5.393-8.697-4.094c-3.536,1.272-5.365,5.168-4.094,8.697l25.337,70.374c-3.271,3.107-5.338,7.466-5.338,12.329
		c0,9.391,7.609,17,17,17c5.542,0,10.417-2.693,13.524-6.801h61.275C281.194,214.25,285.763,209.681,285.763,204.051z
		 M325.407,352.358c12.512,19.584,15.98,38.76,7.141,46.172c-9.52,8.024-30.328-0.612-48.688-19.38
		c-2.041-2.108-4.08-4.352-6.053-6.732l-3.332-3.943c-22.508,10.2-47.465,15.775-73.712,15.775
		c-26.248,0-51.204-5.575-73.712-15.775l-3.332,3.943c-1.972,2.381-4.012,4.624-6.052,6.732
		c-18.36,18.768-39.168,27.404-48.688,19.38c-8.84-7.412-5.372-26.588,7.14-46.172c2.312-3.672,5.032-7.344,7.956-11.016
		c-38.896-33.049-63.512-82.28-63.512-137.292c0-41.685,14.144-80.036,37.944-110.568c19.584-25.296,45.9-45.152,76.16-57.052
		c20.468-8.16,42.772-12.58,66.096-12.58c23.323,0,45.628,4.42,66.097,12.58c30.26,11.9,56.576,31.756,76.16,57.052
		c23.799,30.532,37.943,68.884,37.943,110.568c0,55.012-24.617,104.243-63.512,137.292
		C320.376,345.015,323.095,348.687,325.407,352.358z M343.563,204.051c0-78.738-64.062-142.8-142.8-142.8
		c-78.744,0-142.8,64.062-142.8,142.8c0,78.737,64.056,142.8,142.8,142.8C279.501,346.851,343.563,282.787,343.563,204.051z"/>
</g>
<g>
</g>
<g>
</g>
<g>
</g>
<g>
</g>
<g>
</g>
<g>
</g>
<g>
</g>
<g>
</g>
<g>
</g>
<g>
</g>
<g>
</g>
<g>
</g>
<g>
</g>
<g>
</g>
<g>
</g>
</svg>
