<svg width="24" height="24" viewBox="0 0 85 426" fill="none" xmlns="http://www.w3.org/2000/svg">
<path d="M32.3333 1.20183C20.0666 4.40182 9.26662 13.2018 3.66662 24.6685C-0.866713 34.0018 -1.00005 51.0685 3.53329 60.2685C7.53329 68.6685 15.2666 76.4018 23.9333 80.9352C30.0666 84.0018 32.6 84.5352 42.3333 84.5352C52.0666 84.5352 54.6 84.0018 60.6 80.9352C69.4 76.4018 76.0666 69.7352 80.6 60.9352C83.6666 54.9352 84.2 52.4018 84.2 42.6685C84.2 32.9352 83.6666 30.4018 80.6 24.2685C76.0666 15.6018 68.2 7.86849 60.0666 4.00183C53.4 0.935158 39 -0.531502 32.3333 1.20183Z" fill=""/>
<path d="M32.3333 171.866C20.0666 175.066 9.26662 183.866 3.66662 195.333C-0.866713 204.666 -1.00005 221.733 3.53329 230.933C7.53329 239.333 15.2666 247.066 23.9333 251.599C30.0666 254.666 32.6 255.199 42.3333 255.199C52.0666 255.199 54.6 254.666 60.6 251.599C69.4 247.066 76.0666 240.399 80.6 231.599C83.6666 225.599 84.2 223.066 84.2 213.333C84.2 203.599 83.6666 201.066 80.6 194.933C76.0666 186.266 68.2 178.533 60.0666 174.666C53.4 171.599 39 170.133 32.3333 171.866Z" fill=""/>
<path d="M32.3333 342.534C20.0666 345.734 9.26662 354.534 3.66662 366.001C-0.866713 375.334 -1.00005 392.401 3.53329 401.601C7.53329 410.001 15.2666 417.734 23.9333 422.267C30.0666 425.334 32.6 425.867 42.3333 425.867C52.0666 425.867 54.6 425.334 60.6 422.267C69.4 417.734 76.0666 411.067 80.6 402.267C83.6666 396.267 84.2 393.734 84.2 384.001C84.2 374.267 83.6666 371.734 80.6 365.601C76.0666 356.934 68.2 349.201 60.0666 345.334C53.4 342.267 39 340.801 32.3333 342.534Z" fill=""/>
</svg>
