<svg width="24" height="24" viewBox="0 0 555 551" fill="none" xmlns="http://www.w3.org/2000/svg">
<path d="M265.6 1.99963C263.2 3.06628 205.2 37.4663 136.8 78.533C56.5333 126.8 10.9333 154.933 8.2666 157.866C-0.666731 168 -0.133398 156.133 0.266602 342.133L0.666602 510.133L5.59994 520.266C11.5999 532.4 19.3333 539.866 31.7333 545.733L40.6666 550L107.333 550.4C157.467 550.666 175.467 550.4 180 549.2C187.867 546.933 198.8 536.266 201.067 528.533C202.267 524.533 202.667 503.333 202.667 449.466V375.866L206 372.666L209.2 369.333H277.333H345.467L348.667 372.666L352 375.866V449.466C352 503.333 352.4 524.533 353.6 528.533C355.867 536.266 366.8 546.933 374.667 549.2C379.2 550.4 397.2 550.666 447.333 550.4L514 550L522.933 545.733C535.333 539.866 543.067 532.4 549.067 520.266L554 510.133L554.4 342.133C554.8 156.133 555.333 168 546.4 157.866C543.733 154.933 498.133 126.8 417.867 78.533C349.333 37.4663 291.2 2.93298 288.667 1.99963C282.933 -0.533691 271.333 -0.533691 265.6 1.99963ZM404.933 95.4663C472.933 136.266 529.733 170.8 531.067 172.266C533.2 174.8 533.333 184.666 533.333 338.266C533.333 462.666 532.933 503.066 531.733 507.2C529.6 514.533 518.533 525.6 511.2 527.733C507.2 528.933 488.267 529.333 442.8 529.333H379.867L376.667 526L373.333 522.8V449.2C373.333 396.266 372.933 374.133 371.733 370.4C370.933 367.466 367.6 362.133 364.4 358.666C354.667 347.733 356.267 348 277.6 348C227.6 348 207.467 348.4 203.467 349.6C196.133 351.733 185.067 362.8 182.933 370.133C181.733 374.133 181.333 395.333 181.333 449.2V522.8L178 526L174.8 529.333H111.867C66.3999 529.333 47.4666 528.933 43.4666 527.733C36.1333 525.6 25.0666 514.533 22.9333 507.2C20.5333 499.066 20.6666 176.133 23.0666 172.933C23.8666 171.733 80.5333 137.066 148.667 96.133C239.733 41.3329 273.733 21.4663 276.933 21.4663C280.267 21.3329 307.733 37.3329 404.933 95.4663Z" fill=""/>
</svg>
