<?xml version="1.0" encoding="iso-8859-1"?>
<!-- Generator: Adobe Illustrator 19.0.0, SVG Export Plug-In . SVG Version: 6.00 Build 0)  -->
<svg version="1.1" id="Layer_1" xmlns="http://www.w3.org/2000/svg" xmlns:xlink="http://www.w3.org/1999/xlink" x="0px" y="0px"
	 viewBox="0 0 511.997 511.997" style="enable-background:new 0 0 511.997 511.997;" xml:space="preserve">
<g>
	<g>
		<path d="M394.151,121.327L275.453,2.629c-5.615-5.615-15.206-1.638-15.206,6.298v118.289c0,5.146,4.173,9.318,9.318,9.318h118.289
			C395.79,136.534,399.766,126.934,394.151,121.327z"/>
	</g>
</g>
<g>
	<g>
		<path d="M396.78,230.4v-68.267c0-4.71-3.823-8.533-8.533-8.533H251.713c-4.71,0-8.533-3.823-8.533-8.533V8.534
			c0-4.71-3.823-8.533-8.533-8.533H46.913c-4.71,0-8.533,3.823-8.533,8.533v469.333c0,4.71,3.823,8.533,8.533,8.533l177.084,0.009
			c3.251,0,6.221-1.852,7.654-4.779c1.434-2.918,1.084-6.4-0.905-8.977c-19.465-25.165-29.892-55.253-30.225-87.091
			c-0.666-64.341,41.557-122.88,103.39-140.698c27.375-7.885,55.731-7.825,81.98-0.256c4.54,1.271,9.259-1.306,10.564-5.837
			C396.976,236.971,396.78,231.527,396.78,230.4z"/>
	</g>
</g>
<g>
	<g>
		<path d="M472.556,367.318c-7.245-56.994-53.265-103.014-110.259-110.259c-83.61-10.624-154.249,60.006-143.616,143.616
			c7.245,56.994,53.265,103.014,110.259,110.259C412.541,521.566,483.18,450.927,472.556,367.318z M394.314,432.7
			c-1.664,1.664-3.849,2.5-6.033,2.5s-4.369-0.836-6.033-2.5l-33.613-33.613c-1.664-1.664-4.369-1.664-6.033,0L308.989,432.7
			c-1.673,1.664-3.857,2.5-6.042,2.5c-2.185,0-4.369-0.836-6.033-2.5c-3.336-3.337-3.336-8.73,0-12.066l33.613-33.613
			c1.664-1.664,1.664-4.369,0-6.033l-33.613-33.613c-3.337-3.336-3.337-8.73,0-12.066c3.337-3.337,8.73-3.336,12.066,0
			l33.613,33.613c1.664,1.664,4.369,1.664,6.033,0l33.613-33.613c3.337-3.336,8.73-3.336,12.066,0c3.337,3.337,3.337,8.73,0,12.066
			l-33.613,33.613c-1.664,1.664-1.664,4.361,0.008,6.033l33.613,33.613C397.65,423.971,397.65,429.364,394.314,432.7z"/>
	</g>
</g>
<g>
</g>
<g>
</g>
<g>
</g>
<g>
</g>
<g>
</g>
<g>
</g>
<g>
</g>
<g>
</g>
<g>
</g>
<g>
</g>
<g>
</g>
<g>
</g>
<g>
</g>
<g>
</g>
<g>
</g>
</svg>
