<svg width="40" height="40" viewBox="0 0 24 24" fill="none" xmlns="http://www.w3.org/2000/svg">
<path d="M3 2H6.5M23 19C23 19.5304 22.7893 20.0391 22.4142 20.4142C22.0391 20.7893 21.5304 21 21 21H3C2.46957 21 1.96086 20.7893 1.58579 20.4142C1.21071 20.0391 1 19.5304 1 19V7C1 5.89543 1.89543 5 3 5H21C21.5304 5 22.0391 5.21071 22.4142 5.58579C22.7893 5.96086 23 6.46957 23 7V19Z" stroke="white" stroke-width="2" stroke-linecap="round" stroke-linejoin="round"/>
<path d="M8.55011 15.0244C8.99144 15.7766 9.66647 16.3639 10.4724 16.6969C11.2784 17.0299 12.1711 17.0905 13.0146 16.8693C13.8581 16.6481 14.6063 16.1573 15.1451 15.4717C15.6839 14.786 15.9839 13.9431 15.9994 13.0712C16.0149 12.1992 15.745 11.3462 15.2309 10.6418C14.7168 9.93743 13.9865 9.42038 13.1514 9.16938C12.3163 8.91837 11.422 8.94716 10.6047 9.25135C9.78744 9.55555 9.09197 10.1185 8.6242 10.8545" stroke="white" stroke-width="2" stroke-linecap="round" stroke-linejoin="round"/>
</svg>
