<svg width="24" height="24" viewBox="0 0 624 640" fill="none" xmlns="http://www.w3.org/2000/svg">
<path d="M240 2.13519C233.867 4.80188 225.733 12.8019 224.133 17.8685C223.333 20.1352 220.267 39.0685 217.333 59.8685C214.4 80.8019 211.733 98.0018 211.6 98.0018C211.467 98.1352 206 101.202 199.333 104.669C192.8 108.268 183.733 113.469 179.467 116.402C175.067 119.335 170.8 121.735 170.133 121.735C169.333 121.735 152.8 115.335 133.333 107.602C113.867 99.8685 96.0001 93.2018 93.7335 92.6685C86.2668 91.2018 75.7335 95.2018 70.0001 101.602C67.2001 104.802 55.7335 123.469 44.4001 143.335C33.0668 163.069 18.9335 187.469 13.2001 197.469C2.00013 216.669 -0.133201 223.335 1.60013 233.202C2.80013 240.402 6.53347 245.868 13.8668 251.735C16.8001 254.135 30.5335 264.802 44.2668 275.602L69.2001 295.069V319.868V344.669L53.0668 357.335C1.4668 397.735 5.0668 394.402 1.8668 405.068C0.133465 410.935 0.000131845 413.335 1.33347 418.402C2.93347 424.802 62.8001 530.135 69.0668 537.602C73.8668 543.202 81.8668 546.935 89.8668 546.935C95.4668 546.935 103.067 544.535 133.333 532.402L170 517.735L177.333 522.535C181.333 525.068 190.667 530.402 198 534.402C205.333 538.402 211.467 541.735 211.6 541.868C211.733 542.002 214.4 559.202 217.333 580.135C220.4 600.935 223.2 619.468 223.6 621.202C224.933 626.402 236 636.935 242 638.535C249.2 640.535 374.667 640.535 381.733 638.535C387.867 636.935 396.267 629.602 399.067 623.602C400.133 621.335 403.6 602.002 406.533 580.668C409.6 559.468 412.267 542.002 412.4 541.868C412.533 541.868 417.467 539.202 423.333 536.002C429.2 532.802 438.267 527.602 443.333 524.268C448.533 520.935 453.333 518.268 454 518.268C454.8 518.268 471.2 524.668 490.667 532.402C510.133 540.135 527.867 546.802 530.133 547.202C536.667 548.668 546 545.602 552 540.135C555.467 536.935 562.933 525.602 573.734 506.669C582.8 490.935 597.067 466.402 605.333 452.135C622.4 422.669 624.667 417.202 623.467 408.669C621.734 397.469 618.267 394.135 567.734 354.802L554.933 344.802V319.868V295.069L586 270.669C618.667 244.935 622 241.469 623.467 230.535C624.4 223.069 622.133 216.669 612.667 200.535C608.534 193.735 597.6 174.669 588.133 158.402C552.933 97.0685 555.067 100.268 546.133 95.7352C535.734 90.4019 530.667 91.4685 491.2 107.335C471.6 115.335 454.8 121.735 454 121.735C453.2 121.735 448.933 119.335 444.533 116.402C440.267 113.469 431.333 108.135 424.667 104.669C418.133 101.202 412.533 98.1352 412.4 98.1352C412.267 98.0018 409.733 80.8019 406.667 60.0018C403.733 39.0685 400.667 20.1352 399.867 17.8685C398.267 12.6685 390.133 4.66852 383.733 2.00183C376.4 -0.931458 247.067 -0.931458 240 2.13519ZM374.8 29.2018C375.333 29.6019 376.933 39.3352 378.533 50.6685C380.133 62.0018 382.667 80.2685 384.133 91.3352C385.733 102.268 387.733 112.669 388.8 114.402C389.867 116.002 397.467 120.669 405.733 124.802C413.867 128.935 426.8 136.402 434.267 141.469C442.267 146.802 449.333 150.669 451.333 150.669C453.2 150.669 463.6 147.335 474.4 143.202C521.467 125.469 533.6 121.202 535.067 121.735C536 122.135 541.467 130.669 547.2 140.802C553.067 151.069 564.8 171.335 573.333 186.002C581.867 200.669 590.8 216.135 593.067 220.269L597.467 227.868L581.734 240.269C573.067 247.202 558.133 258.802 548.667 266.135C539.067 273.602 530.4 280.669 529.467 281.868C526.8 284.935 526.4 353.735 528.933 357.335C529.867 358.669 545.333 371.202 563.333 385.335C581.333 399.469 596.4 411.469 596.667 412.002C596.933 412.535 594.4 417.735 590.8 423.469C587.333 429.202 580 441.469 574.667 450.669C569.333 459.868 558.667 477.602 551.067 490.268C543.467 502.935 536.667 514.802 535.734 516.668C534.933 518.535 533.6 520.002 532.8 520.002C532 520.002 514 513.068 492.8 504.535C462.533 492.402 453.333 489.202 450 489.735C447.6 490.135 440 494.268 433.2 499.068C426.267 503.868 413.867 511.068 405.733 515.202C397.467 519.335 389.867 524.002 388.8 525.602C387.733 527.335 384.933 540.935 382.667 555.868C377.2 591.068 373.6 612.268 372.8 612.935C372.533 613.202 344.4 613.068 310.533 612.402L248.667 611.335L244.4 581.335C242.133 564.802 239.467 546.002 238.533 539.468C237.333 531.068 236.133 526.668 234.133 524.535C232.533 522.802 225.6 518.535 218.667 515.202C204.933 508.669 196.4 503.602 185.733 495.602C175.333 487.868 172.8 488.002 151.2 496.135C81.8668 522.268 88.8001 520.002 86.9335 516.802C71.3335 490.802 26.9335 412.535 27.4668 411.868C27.7335 411.335 42.6668 399.469 60.5335 385.469C78.4001 371.469 93.7335 359.069 94.6668 358.002C96.1335 356.268 96.5335 347.868 96.6668 320.268L96.8001 284.669L91.3335 279.335C88.4001 276.402 72.9335 263.469 57.0668 250.669C41.2001 237.868 28.2668 226.535 28.4001 225.735C28.9335 222.535 90.0001 120.135 91.4668 120.002C92.1335 120.002 110 126.935 130.933 135.335C151.867 143.735 170.533 150.669 172.533 150.669C174.667 150.669 181.333 147.069 189.733 141.469C197.2 136.402 210.133 128.935 218.267 124.802C226.533 120.669 234.133 116.002 235.2 114.402C236.133 112.669 238.4 102.935 240 92.6685C244 66.9352 249.2 34.8019 250.133 30.2686L250.933 26.5352L312.4 27.4685C346.267 27.8685 374.4 28.6685 374.8 29.2018Z" fill="black"/>
<path d="M296.667 187.47C256.133 193.47 223.467 213.47 201.467 245.737C195.333 254.803 185.867 275.203 183.467 284.67C175.2 317.47 178.267 348.803 192.667 378.003C210.8 415.07 244.667 442.003 283.333 450.003C323.733 458.403 363.6 448.937 395.6 423.337C414 408.537 431.067 384.27 438.533 361.737C449.333 329.337 446.667 291.737 431.067 260.67C421.333 241.203 404.933 222.137 388 210.67C375.867 202.403 356.933 193.87 344 190.67C332.933 188.003 305.6 186.137 296.667 187.47ZM332.533 215.337C367.867 222.67 396.133 245.87 410.267 279.337C416.667 294.27 418 301.737 418 320.67C417.867 338.937 416.533 345.603 409.733 362.003C397.2 391.87 368.933 415.737 336 424.137C326.4 426.537 297.6 426.537 288 424.137C267.867 418.937 249.6 408.137 234.533 392.403C182.4 337.737 203.2 248.27 274.667 220.137C291.867 213.47 314.267 211.603 332.533 215.337Z" fill="black"/>
</svg>
