<svg width="24" height="24" viewBox="0 0 406 491" fill="none" xmlns="http://www.w3.org/2000/svg">
<path d="M153.6 44.9328C128.8 69.7328 108.267 91.3328 107.867 93.0661C106.134 99.7328 112.134 106.666 119.734 106.666C121.6 106.666 133.467 95.8661 157.6 71.7328L192.667 36.7995V180.399V324.133L196 327.333C200.267 331.733 206.4 331.733 210.667 327.333L214 324.133V180.399V36.7995L249.067 71.7328C280.534 103.066 284.534 106.666 288.4 106.666C294.267 106.666 299.334 101.599 299.334 95.7328C299.334 91.7328 295.067 87.1995 253.6 45.7328C211.334 3.3328 207.6 -0.000538077 203.334 -0.000538077C199.067 -0.000538077 195.467 3.3328 153.6 44.9328Z" fill=""/>
<path d="M4.00033 152.668L0.666992 155.868V320.001V484.135L4.00033 487.335L7.20033 490.668H203.334H399.467L402.667 487.335L406 484.135V320.001V155.868L402.667 152.668L399.467 149.335H331.334H263.2L260 152.668C257.867 154.668 256.667 157.468 256.667 160.001C256.667 162.535 257.867 165.335 260 167.335L263.2 170.668H324H384.667V320.001V469.335H203.334H22.0003V320.001V170.668H82.667H143.467L146.667 167.335C148.8 165.335 150 162.535 150 160.001C150 157.468 148.8 154.668 146.667 152.668L143.467 149.335H75.3337H7.20033L4.00033 152.668Z" fill=""/>
</svg>
