<svg width="270" height="215" viewBox="0 0 270 215" fill="none" xmlns="http://www.w3.org/2000/svg">
<g clip-path="url(#clip0_1504_27057)">
<path d="M175 49.3744C175 49.2738 175 49.2163 175 49.2163C175 28.076 157.093 10.9395 134.996 10.9395C112.899 10.9395 95.0658 28.076 95.0003 49.2163C94.8694 90.318 132.525 109.295 132.525 109.295C134.014 110.179 135.946 110.244 137.492 109.438C137.492 109.438 174.608 87.3924 175 49.3744Z" fill="#FFE145"/>
<path d="M134.129 14.3344C133.523 14.3344 132.999 13.9391 132.917 13.3999C132.868 13.0765 131.714 5.37798 135.094 1.82705C136.183 0.684132 137.599 0.0659526 139.309 0.00125937C140.005 -0.0274932 140.561 0.439736 140.586 1.02916C140.619 1.62578 140.087 2.12895 139.416 2.15051C138.409 2.18645 137.607 2.53148 136.969 3.20717C134.743 5.5505 135.037 11.1501 135.34 13.1052C135.43 13.6947 134.963 14.241 134.292 14.32C134.235 14.32 134.178 14.3272 134.129 14.3272V14.3344Z" fill="#65454D"/>
<path d="M132.283 39.8876C132.283 38.8451 131.324 38 130.141 38C128.959 38 128 38.8451 128 39.8876V41.9811C128 43.0236 128.959 43.8687 130.141 43.8687C131.324 43.8687 132.283 43.0236 132.283 41.9811V39.8876Z" fill="#282828"/>
<path d="M142.561 39.8876C142.561 38.8451 141.602 38 140.42 38C139.237 38 138.278 38.8451 138.278 39.8876V41.9811C138.278 43.0236 139.237 43.8687 140.42 43.8687C141.602 43.8687 142.561 43.0236 142.561 41.9811V39.8876Z" fill="#282828"/>
<path d="M133.549 72.0328C131.656 71.1117 128.206 68.8156 125.431 66.0424C124.416 65.0287 123.588 64.0456 122.978 63.1405C124.636 63.1628 126.289 63.681 128.21 64.6155C128.44 64.7275 128.667 64.8385 128.89 64.9476C129.942 65.462 130.907 65.9336 131.688 66.2557C132.664 66.6585 134.1 67.163 135.819 67.0079C137.484 66.8577 138.771 66.1333 139.466 65.7355C139.834 65.525 140.124 65.351 140.413 65.1777C140.871 64.9029 141.326 64.6298 142.083 64.2161C142.585 63.9418 143.071 63.6571 143.486 63.4141L143.515 63.397C143.958 63.1373 144.326 62.9222 144.687 62.7253C145.411 62.3298 145.891 62.1297 146.268 62.0322C146.589 61.9491 146.846 61.9372 147.144 61.9947C147.463 62.0563 148.036 62.2394 148.91 62.8202C148.936 62.8492 149.063 62.9897 149.23 63.3209C149.466 63.7881 149.665 64.4178 149.753 65.1031C149.841 65.793 149.794 66.3701 149.691 66.7614C149.628 67.0046 149.562 67.1115 149.541 67.1408C144.1 71.9236 138.85 74.6122 133.549 72.0328ZM149.534 67.1495C149.534 67.1495 149.535 67.1481 149.537 67.1457C149.535 67.1483 149.534 67.1496 149.534 67.1495Z" stroke="#FF521C" stroke-width="10" stroke-linecap="square"/>
</g>
<path d="M4.21581 182.764V183.92H18.1558V182.764H4.21581ZM10.4378 183.478V189.326H11.8318V183.478H10.4378ZM11.1518 174.57C7.95581 174.57 5.77981 175.879 5.77981 177.936C5.77981 179.993 7.95581 181.302 11.1518 181.302C14.3648 181.302 16.5238 179.993 16.5238 177.936C16.5238 175.879 14.3648 174.57 11.1518 174.57ZM11.1518 175.709C13.4978 175.709 15.0788 176.576 15.0788 177.936C15.0788 179.296 13.4978 180.163 11.1518 180.163C8.80581 180.163 7.20781 179.296 7.20781 177.936C7.20781 176.576 8.80581 175.709 11.1518 175.709ZM31.0575 173.941V189.343H32.4685V173.941H31.0575ZM20.7555 184.464V185.637H22.0305C24.6655 185.637 26.9775 185.535 29.7655 185.076L29.6125 183.92C26.8925 184.362 24.5975 184.464 22.0305 184.464H20.7555ZM20.7215 175.386V176.542H26.3995V179.721H20.7555V184.906H22.1665V180.877H27.8275V175.386H20.7215ZM35.5102 181.523V182.679H49.3992V181.523H35.5102ZM41.7492 179.058V181.999H43.1432V179.058H41.7492ZM37.2612 178.616V179.772H47.7842V178.616H37.2612ZM37.2612 174.655V179.296H38.6552V175.794H47.6652V174.655H37.2612ZM42.4292 183.784C39.1482 183.784 37.1592 184.787 37.1592 186.538C37.1592 188.323 39.1482 189.309 42.4292 189.309C45.7102 189.309 47.6992 188.323 47.6992 186.538C47.6992 184.787 45.7102 183.784 42.4292 183.784ZM42.4292 184.872C44.8432 184.872 46.2712 185.484 46.2712 186.538C46.2712 187.609 44.8432 188.204 42.4292 188.204C40.0322 188.204 38.5872 187.609 38.5872 186.538C38.5872 185.484 40.0322 184.872 42.4292 184.872ZM51.8798 175.607V184.617H53.2738V175.607H51.8798ZM51.8798 184.209V185.433H52.8658C54.7188 185.433 56.4358 185.348 58.4418 184.94L58.2548 183.733C56.3168 184.124 54.6508 184.209 52.8658 184.209H51.8798ZM62.8448 173.958V189.326H64.2048V173.958H62.8448ZM56.1468 179.109V180.282H59.9888V179.109H56.1468ZM59.5978 174.315V188.544H60.9238V174.315H59.5978ZM73.0095 179.925V181.098H75.9165V179.925H73.0095ZM78.4835 173.958V189.326H79.8435V173.958H78.4835ZM75.4405 174.281V188.561H76.7835V174.281H75.4405ZM70.2385 175.233C68.2495 175.233 66.9745 177.29 66.9745 180.588C66.9745 183.886 68.2495 185.943 70.2385 185.943C72.2275 185.943 73.5195 183.886 73.5195 180.588C73.5195 177.29 72.2275 175.233 70.2385 175.233ZM70.2385 176.542C71.4625 176.542 72.2275 178.106 72.2275 180.588C72.2275 183.07 71.4625 184.634 70.2385 184.634C69.0315 184.634 68.2665 183.07 68.2665 180.588C68.2665 178.106 69.0315 176.542 70.2385 176.542ZM87.8024 175.488V185.433H94.8574V175.488H87.8024ZM93.4804 176.627V184.294H89.1794V176.627H93.4804ZM97.5944 173.958V189.326H99.0224V173.958H97.5944ZM98.6824 180.095V181.285H101.538V180.095H98.6824ZM113.352 173.958V182.662H114.763V173.958H113.352ZM114.372 177.698V178.871H117.041V177.698H114.372ZM109.102 174.944V175.573C109.102 178.395 106.807 180.622 102.829 181.71L103.373 182.832C107.895 181.608 110.598 178.82 110.598 174.944H109.102ZM103.492 174.944V176.083H109.884V174.944H103.492ZM105.09 183.393V189.122H114.763V183.393H105.09ZM113.369 184.532V187.966H106.484V184.532H113.369ZM121.064 186.31L120.967 186.962C120.899 187.42 120.794 187.911 120.653 188.435C120.516 188.958 120.374 189.451 120.225 189.914C120.076 190.377 119.953 190.745 119.856 191.018H118.77C118.822 190.761 118.89 190.421 118.975 189.998C119.059 189.576 119.144 189.103 119.229 188.58C119.317 188.06 119.39 187.529 119.446 186.986L119.518 186.31H121.064ZM139.2 173.975V182.747H140.628V173.975H139.2ZM130.7 183.58V189.122H140.628V183.58H130.7ZM139.234 184.702V187.983H132.077V184.702H139.234ZM132.383 174.774C130.054 174.774 128.371 176.236 128.371 178.361C128.371 180.486 130.054 181.948 132.383 181.948C134.712 181.948 136.378 180.486 136.378 178.361C136.378 176.236 134.712 174.774 132.383 174.774ZM132.383 175.947C133.913 175.947 135.018 176.933 135.018 178.361C135.018 179.789 133.913 180.758 132.383 180.758C130.853 180.758 129.748 179.789 129.748 178.361C129.748 176.933 130.853 175.947 132.383 175.947ZM154.175 173.958V183.223H155.586V173.958H154.175ZM155.195 177.936V179.126H157.864V177.936H155.195ZM145.607 184.039V185.195H154.175V189.326H155.586V184.039H145.607ZM144.298 174.91V182.186H151.404V174.91H150.027V177.307H145.692V174.91H144.298ZM145.692 178.429H150.027V181.064H145.692V178.429ZM161.887 186.31L161.79 186.962C161.722 187.42 161.617 187.911 161.476 188.435C161.34 188.958 161.197 189.451 161.048 189.914C160.899 190.377 160.776 190.745 160.68 191.018H159.593C159.645 190.761 159.714 190.421 159.798 189.998C159.883 189.576 159.967 189.103 160.052 188.58C160.14 188.06 160.213 187.529 160.269 186.986L160.342 186.31H161.887ZM170.622 174.587V179.772H180.958V174.587H170.622ZM179.564 175.726V178.633H171.999V175.726H179.564ZM168.837 181.574V182.713H182.726V181.574H168.837ZM175.093 179.415V182.067H176.487V179.415H175.093ZM175.076 183.682V184.158C175.076 186.198 172.713 187.728 169.908 188.136L170.452 189.241C173.597 188.714 176.283 186.912 176.283 184.158V183.682H175.076ZM175.297 183.682V184.158C175.297 186.912 177.966 188.714 181.111 189.241L181.655 188.136C178.85 187.728 176.504 186.198 176.504 184.158V183.682H175.297ZM185.224 175.063V181.557H186.635V175.063H185.224ZM185.224 181.115V182.305H186.448C188.726 182.305 191.038 182.152 193.622 181.608L193.452 180.452C190.936 180.962 188.641 181.115 186.448 181.115H185.224ZM194.999 173.975V185.076H196.41V173.975H194.999ZM195.968 178.514V179.721H198.688V178.514H195.968ZM186.89 187.83V188.986H196.954V187.83H186.89ZM186.89 183.988V188.374H188.301V183.988H186.89ZM211.283 173.941V189.343H212.694V173.941H211.283ZM204.585 175.131C202.324 175.131 200.692 177.222 200.692 180.486C200.692 183.767 202.324 185.858 204.585 185.858C206.863 185.858 208.495 183.767 208.495 180.486C208.495 177.222 206.863 175.131 204.585 175.131ZM204.585 176.406C206.098 176.406 207.135 178.004 207.135 180.486C207.135 182.985 206.098 184.617 204.585 184.617C203.089 184.617 202.035 182.985 202.035 180.486C202.035 178.004 203.089 176.406 204.585 176.406ZM224.274 174.757V176.321C224.274 178.667 222.778 180.741 220.466 181.591L221.214 182.73C223.781 181.727 225.447 179.279 225.447 176.321V174.757H224.274ZM224.529 174.757V176.423C224.529 179.092 226.212 181.37 228.677 182.288L229.425 181.183C227.215 180.418 225.685 178.497 225.685 176.423V174.757H224.529ZM231.057 173.958V183.274H232.468V173.958H231.057ZM232.077 177.919V179.109H234.746V177.919H232.077ZM227.572 183.699C224.427 183.699 222.523 184.736 222.523 186.504C222.523 188.272 224.427 189.292 227.572 189.292C230.717 189.292 232.621 188.272 232.621 186.504C232.621 184.736 230.717 183.699 227.572 183.699ZM227.572 184.821C229.85 184.821 231.244 185.433 231.244 186.504C231.244 187.575 229.85 188.187 227.572 188.187C225.294 188.187 223.9 187.575 223.9 186.504C223.9 185.433 225.294 184.821 227.572 184.821ZM242.429 182.118V184.77H243.823V182.118H242.429ZM236.173 181.37V182.526H250.062V181.37H236.173ZM237.465 174.434V175.59H248.753V174.434H237.465ZM237.533 178.803V179.959H248.685V178.803H237.533ZM239.794 174.944V179.551H241.205V174.944H239.794ZM245.03 174.944V179.551H246.424V174.944H245.03ZM237.873 184.311V189.122H248.362V184.311H237.873ZM246.985 185.433V187.983H239.267V185.433H246.985ZM258.765 174.213C255.365 174.213 253.359 175.165 253.359 176.882C253.359 178.599 255.365 179.551 258.765 179.551C262.148 179.551 264.171 178.599 264.171 176.882C264.171 175.165 262.148 174.213 258.765 174.213ZM258.765 175.284C261.264 175.284 262.709 175.862 262.709 176.882C262.709 177.902 261.264 178.48 258.765 178.48C256.249 178.48 254.804 177.902 254.804 176.882C254.804 175.862 256.249 175.284 258.765 175.284ZM251.812 180.571V181.71H265.701V180.571H251.812ZM253.495 183.019V184.107H262.539V185.467H253.529V188.357H254.923V186.487H263.933V183.019H253.495ZM253.529 188.051V189.156H264.392V188.051H253.529ZM32.9394 196.995V198.117H41.1504V196.995H32.9394ZM32.6674 203.404C35.3194 203.387 38.8554 203.353 41.9494 202.877L41.8644 201.84C38.8554 202.197 35.2004 202.231 32.5144 202.231L32.6674 203.404ZM34.4524 197.471V202.894H35.8124V197.471H34.4524ZM38.2604 197.471V202.894H39.6204V197.471H38.2604ZM42.9864 195.958V203.914H44.3974V195.958H42.9864ZM43.7854 199.307V200.48H46.6584V199.307H43.7854ZM34.6394 204.662V205.784H43.0204V207.297H34.6734V210.646H36.0674V208.368H44.3974V204.662H34.6394ZM34.6734 210.034V211.156H44.9584V210.034H34.6734ZM52.199 197.131C49.938 197.131 48.34 199.222 48.34 202.486C48.34 205.767 49.938 207.858 52.199 207.858C54.46 207.858 56.058 205.767 56.058 202.486C56.058 199.222 54.46 197.131 52.199 197.131ZM52.199 198.406C53.678 198.406 54.715 200.004 54.715 202.486C54.715 204.985 53.678 206.617 52.199 206.617C50.703 206.617 49.683 204.985 49.683 202.486C49.683 200.004 50.703 198.406 52.199 198.406ZM58.506 195.958V211.326H59.934V195.958H58.506ZM59.594 202.095V203.285H62.45V202.095H59.594ZM71.4247 201.16V202.316H75.7087V201.16H71.4247ZM67.7187 197.284V200.021C67.7187 202.877 65.9847 205.835 63.7237 206.957L64.6247 208.079C67.0557 206.77 68.8747 203.472 68.8747 200.021V197.284H67.7187ZM67.9907 197.284V200.021C67.9907 203.387 69.7757 206.549 72.2577 207.807L73.0907 206.668C70.8637 205.614 69.1297 202.826 69.1297 200.021V197.284H67.9907ZM75.0117 195.941V211.343H76.4057V195.941H75.0117ZM90.4166 205.733V211.343H91.8106V205.733H90.4166ZM84.1776 205.24V206.413H98.0666V205.24H84.1776ZM90.3996 198.593V198.984C90.3996 200.905 87.8156 202.588 85.0446 202.962L85.5376 204.084C88.7676 203.591 91.6406 201.636 91.6406 198.984V198.593H90.3996ZM90.5866 198.593V198.984C90.5866 201.602 93.4426 203.608 96.6556 204.084L97.1656 202.962C94.4116 202.588 91.8106 200.888 91.8106 198.984V198.593H90.5866ZM85.5206 197.845V199.001H96.7236V197.845H85.5206ZM90.4166 195.958V198.253H91.8106V195.958H90.4166ZM110.203 195.941V211.326H111.631V195.941H110.203ZM111.24 202.18V203.353H114.079V202.18H111.24ZM106.276 197.607V197.828C106.276 201.891 104.151 205.172 99.9013 207.331L100.683 208.419C105.647 205.92 107.653 201.976 107.653 197.607H106.276ZM100.615 197.607V198.763H107.007V197.607H100.615ZM126.441 196.502V197.352C126.441 199.545 123.738 201.381 120.933 201.806L121.494 202.945C124.69 202.401 127.682 200.293 127.682 197.352V196.502H126.441ZM126.696 196.502V197.352C126.696 200.259 129.705 202.401 132.867 202.945L133.428 201.806C130.657 201.381 127.92 199.494 127.92 197.352V196.502H126.696ZM126.441 205.478V211.326H127.835V205.478H126.441ZM120.236 204.611V205.784H134.125V204.611H120.236ZM138.204 205.937V207.076H147.044V211.326H148.472V205.937H138.204ZM147.044 195.958V205.087H148.472V195.958H147.044ZM140.227 196.859C137.898 196.859 136.215 198.355 136.215 200.514C136.215 202.656 137.898 204.135 140.227 204.135C142.539 204.135 144.222 202.656 144.222 200.514C144.222 198.355 142.539 196.859 140.227 196.859ZM140.227 198.066C141.757 198.066 142.862 199.052 142.862 200.514C142.862 201.959 141.757 202.962 140.227 202.962C138.697 202.962 137.592 201.959 137.592 200.514C137.592 199.052 138.697 198.066 140.227 198.066ZM158.45 196.213C155.05 196.213 153.044 197.165 153.044 198.882C153.044 200.599 155.05 201.551 158.45 201.551C161.833 201.551 163.856 200.599 163.856 198.882C163.856 197.165 161.833 196.213 158.45 196.213ZM158.45 197.284C160.949 197.284 162.394 197.862 162.394 198.882C162.394 199.902 160.949 200.48 158.45 200.48C155.934 200.48 154.489 199.902 154.489 198.882C154.489 197.862 155.934 197.284 158.45 197.284ZM151.497 202.571V203.71H165.386V202.571H151.497ZM153.18 205.019V206.107H162.224V207.467H153.214V210.357H154.608V208.487H163.618V205.019H153.18ZM153.214 210.051V211.156H164.077V210.051H153.214ZM174.636 205.648V210.561H176.03V206.787H184.666V205.648H174.636ZM174.636 209.983V211.122H184.904V209.983H174.636ZM183.153 195.958V204.781H184.564V195.958H183.153ZM179.481 199.817V200.99H183.544V199.817H179.481ZM176.115 196.774C173.837 196.774 172.154 198.287 172.154 200.429C172.154 202.571 173.837 204.084 176.115 204.084C178.376 204.084 180.076 202.571 180.076 200.429C180.076 198.287 178.376 196.774 176.115 196.774ZM176.115 197.981C177.611 197.981 178.716 198.984 178.716 200.429C178.716 201.874 177.611 202.894 176.115 202.894C174.619 202.894 173.514 201.874 173.514 200.429C173.514 198.984 174.619 197.981 176.115 197.981ZM194.508 196.927C191.312 196.927 188.915 198.627 188.915 201.177C188.915 203.744 191.312 205.427 194.508 205.427C197.704 205.427 200.084 203.744 200.084 201.177C200.084 198.627 197.704 196.927 194.508 196.927ZM194.508 198.083C196.939 198.083 198.741 199.324 198.741 201.177C198.741 203.013 196.939 204.271 194.508 204.271C192.077 204.271 190.275 203.013 190.275 201.177C190.275 199.324 192.077 198.083 194.508 198.083ZM187.572 208.113V209.303H201.495V208.113H187.572ZM209.263 201.449V202.622H212.204V201.449H209.263ZM206.39 197.403V200.327C206.39 202.962 205.132 205.716 203.024 206.957L203.908 208.028C206.152 206.651 207.495 203.54 207.495 200.327V197.403H206.39ZM206.662 197.403V200.276C206.662 203.268 207.903 206.328 210.113 207.688L210.929 206.583C208.906 205.359 207.75 202.741 207.75 200.276V197.403H206.662ZM214.907 195.958V211.326H216.267V195.958H214.907ZM211.796 196.281V210.561H213.122V196.281H211.796ZM222.25 203.863V208.47H223.644V203.863H222.25ZM227.928 203.863V208.47H229.339V203.863H227.928ZM218.85 208.198V209.371H232.773V208.198H218.85ZM225.786 196.927C222.522 196.927 220.193 198.474 220.193 200.888C220.193 203.285 222.522 204.832 225.786 204.832C229.033 204.832 231.362 203.285 231.362 200.888C231.362 198.474 229.033 196.927 225.786 196.927ZM225.786 198.049C228.251 198.049 230.002 199.171 230.002 200.888C230.002 202.588 228.251 203.71 225.786 203.71C223.321 203.71 221.553 202.588 221.553 200.888C221.553 199.171 223.321 198.049 225.786 198.049ZM236.826 197.636L236.705 206.523H235.304L235.184 197.636H236.826ZM236.005 210.097C235.707 210.097 235.451 209.99 235.238 209.777C235.025 209.563 234.918 209.308 234.918 209.01C234.918 208.712 235.025 208.457 235.238 208.243C235.451 208.03 235.707 207.923 236.005 207.923C236.302 207.923 236.558 208.03 236.771 208.243C236.985 208.457 237.091 208.712 237.091 209.01C237.091 209.207 237.041 209.388 236.94 209.553C236.844 209.718 236.713 209.851 236.548 209.952C236.387 210.048 236.206 210.097 236.005 210.097Z" fill="white"/>
<path d="M85.4896 144.327V146.574H87.0016C91.0126 146.574 93.0706 146.49 95.3176 145.986L95.0446 143.781C92.8606 144.243 90.9076 144.327 87.0016 144.327H85.4896ZM85.4896 136.725V144.936H88.2406V138.951H94.2256V136.725H85.4896ZM87.4636 148.002V150.228H97.9216V154.869H100.715V148.002H87.4636ZM97.9216 135.423V147.162H100.715V135.423H97.9216ZM93.3226 140.274V142.5H98.6356V140.274H93.3226ZM111.969 140.106V142.332H114.93V140.106H111.969ZM104.514 144.075V146.28H105.837C108.714 146.28 110.562 146.238 112.767 145.839L112.515 143.676C110.394 144.033 108.609 144.075 105.837 144.075H104.514ZM104.514 136.578V145.356H107.202V138.783H111.843V136.578H104.514ZM106.404 140.316V142.437H111.129V140.316H106.404ZM117.681 135.423V147.015H120.327V135.423H117.681ZM113.88 135.717V146.868H116.484V135.717H113.88ZM107.16 147.792V154.659H120.327V147.792H107.16ZM117.597 149.976V152.454H109.911V149.976H117.597ZM128.537 137.208V139.434H139.268V137.208H128.537ZM128.327 150.438C131.645 150.438 136.055 150.354 139.982 149.661L139.835 147.624C135.992 148.107 131.414 148.149 128.033 148.149L128.327 150.438ZM130.196 138.951V148.758H132.905V138.951H130.196ZM134.9 138.951V148.758H137.609V138.951H134.9ZM140.717 135.423V154.869H143.531V135.423H140.717ZM142.901 142.794V145.083H146.345V142.794H142.901ZM149.683 145.44V147.624H163.354V145.44H149.683ZM147.625 150.375V152.643H165.223V150.375H147.625ZM149.683 136.83V146.049H152.518V139.077H163.186V136.83H149.683ZM151.657 141.114V143.277H162.745V141.114H151.657ZM180.467 135.423V154.932H183.26V135.423H180.467ZM175.238 141.429V143.676H181.265V141.429H175.238ZM167.93 137.502V149.577H170.702V137.502H167.93ZM167.93 148.044V150.354H169.568C172.424 150.354 175.406 150.186 178.535 149.556L178.241 147.246C175.217 147.855 172.34 148.044 169.568 148.044H167.93Z" fill="white"/>
<defs>
<clipPath id="clip0_1504_27057">
<rect width="80" height="110" fill="white" transform="translate(95)"/>
</clipPath>
</defs>
</svg>
