<svg width="242" height="215" viewBox="0 0 242 215" fill="none" xmlns="http://www.w3.org/2000/svg">
<g clip-path="url(#clip0_1503_27056)">
<path d="M161 49.3744C161 49.2738 161 49.2163 161 49.2163C161 28.076 143.093 10.9395 120.996 10.9395C98.8986 10.9395 81.0653 28.076 80.9999 49.2163C80.8689 90.318 118.524 109.295 118.524 109.295C120.014 110.179 121.945 110.244 123.492 109.438C123.492 109.438 160.607 87.3924 161 49.3744Z" fill="#FFE145"/>
<path d="M120.128 14.3344C119.523 14.3344 118.999 13.9391 118.917 13.3999C118.868 13.0765 117.714 5.37798 121.094 1.82705C122.182 0.684132 123.598 0.0659526 125.309 0.00125937C126.004 -0.0274932 126.561 0.439736 126.586 1.02916C126.618 1.62578 126.086 2.12895 125.415 2.15051C124.409 2.18645 123.606 2.53148 122.968 3.20717C120.742 5.5505 121.037 11.1501 121.339 13.1052C121.429 13.6947 120.963 14.241 120.292 14.32C120.235 14.32 120.177 14.3272 120.128 14.3272V14.3344Z" fill="#65454D"/>
<path d="M118.283 39.8876C118.283 38.8451 117.324 38 116.141 38C114.959 38 114 38.8451 114 39.8876V41.9811C114 43.0236 114.959 43.8687 116.141 43.8687C117.324 43.8687 118.283 43.0236 118.283 41.9811V39.8876Z" fill="#282828"/>
<path d="M128.561 39.8876C128.561 38.8451 127.602 38 126.42 38C125.237 38 124.278 38.8451 124.278 39.8876V41.9811C124.278 43.0236 125.237 43.8687 126.42 43.8687C127.602 43.8687 128.561 43.0236 128.561 41.9811V39.8876Z" fill="#282828"/>
<path d="M119.548 72.0328C117.655 71.1117 114.206 68.8156 111.43 66.0424C110.416 65.0287 109.588 64.0456 108.977 63.1405C110.636 63.1628 112.289 63.681 114.21 64.6155C114.44 64.7275 114.667 64.8385 114.89 64.9476C115.942 65.462 116.906 65.9336 117.687 66.2557C118.664 66.6585 120.1 67.163 121.819 67.0079C123.483 66.8577 124.77 66.1333 125.465 65.7355C125.833 65.525 126.123 65.351 126.412 65.1777C126.871 64.9029 127.326 64.6298 128.083 64.2161C128.585 63.9418 129.07 63.6571 129.485 63.4141L129.515 63.397C129.958 63.1373 130.326 62.9222 130.686 62.7253C131.411 62.3298 131.891 62.1297 132.267 62.0322C132.588 61.9491 132.846 61.9372 133.143 61.9947C133.462 62.0563 134.035 62.2394 134.91 62.8202C134.935 62.8492 135.063 62.9897 135.23 63.3209C135.465 63.7881 135.665 64.4178 135.752 65.1031C135.84 65.793 135.794 66.3701 135.691 66.7614C135.627 67.0046 135.561 67.1115 135.54 67.1408C130.099 71.9236 124.849 74.6122 119.548 72.0328ZM135.533 67.1495C135.533 67.1495 135.534 67.1481 135.536 67.1457C135.534 67.1483 135.533 67.1496 135.533 67.1495Z" stroke="#FF521C" stroke-width="10" stroke-linecap="square"/>
</g>
<path d="M103.572 144.327V146.574H105.084C109.095 146.574 111.153 146.49 113.4 145.986L113.127 143.781C110.943 144.243 108.99 144.327 105.084 144.327H103.572ZM103.572 136.725V144.936H106.323V138.951H112.308V136.725H103.572ZM105.546 148.002V150.228H116.004V154.869H118.797V148.002H105.546ZM116.004 135.423V147.162H118.797V135.423H116.004ZM111.405 140.274V142.5H116.718V140.274H111.405ZM130.051 140.106V142.332H133.012V140.106H130.051ZM122.596 144.075V146.28H123.919C126.796 146.28 128.644 146.238 130.849 145.839L130.597 143.676C128.476 144.033 126.691 144.075 123.919 144.075H122.596ZM122.596 136.578V145.356H125.284V138.783H129.925V136.578H122.596ZM124.486 140.316V142.437H129.211V140.316H124.486ZM135.763 135.423V147.015H138.409V135.423H135.763ZM131.962 135.717V146.868H134.566V135.717H131.962ZM125.242 147.792V154.659H138.409V147.792H125.242ZM135.679 149.976V152.454H127.993V149.976H135.679Z" fill="#1C1C1E"/>
<path d="M5.85448 182.764V183.92H19.7945V182.764H5.85448ZM12.0765 183.478V189.326H13.4705V183.478H12.0765ZM12.7905 174.57C9.59448 174.57 7.41848 175.879 7.41848 177.936C7.41848 179.993 9.59448 181.302 12.7905 181.302C16.0035 181.302 18.1625 179.993 18.1625 177.936C18.1625 175.879 16.0035 174.57 12.7905 174.57ZM12.7905 175.709C15.1365 175.709 16.7175 176.576 16.7175 177.936C16.7175 179.296 15.1365 180.163 12.7905 180.163C10.4445 180.163 8.84648 179.296 8.84648 177.936C8.84648 176.576 10.4445 175.709 12.7905 175.709ZM32.6962 173.941V189.343H34.1072V173.941H32.6962ZM22.3942 184.464V185.637H23.6692C26.3042 185.637 28.6162 185.535 31.4042 185.076L31.2512 183.92C28.5312 184.362 26.2362 184.464 23.6692 184.464H22.3942ZM22.3602 175.386V176.542H28.0382V179.721H22.3942V184.906H23.8052V180.877H29.4662V175.386H22.3602ZM37.1488 181.523V182.679H51.0378V181.523H37.1488ZM43.3878 179.058V181.999H44.7818V179.058H43.3878ZM38.8998 178.616V179.772H49.4228V178.616H38.8998ZM38.8998 174.655V179.296H40.2938V175.794H49.3038V174.655H38.8998ZM44.0678 183.784C40.7868 183.784 38.7978 184.787 38.7978 186.538C38.7978 188.323 40.7868 189.309 44.0678 189.309C47.3488 189.309 49.3378 188.323 49.3378 186.538C49.3378 184.787 47.3488 183.784 44.0678 183.784ZM44.0678 184.872C46.4818 184.872 47.9098 185.484 47.9098 186.538C47.9098 187.609 46.4818 188.204 44.0678 188.204C41.6708 188.204 40.2258 187.609 40.2258 186.538C40.2258 185.484 41.6708 184.872 44.0678 184.872ZM53.5185 175.607V184.617H54.9125V175.607H53.5185ZM53.5185 184.209V185.433H54.5045C56.3575 185.433 58.0745 185.348 60.0805 184.94L59.8935 183.733C57.9555 184.124 56.2895 184.209 54.5045 184.209H53.5185ZM64.4835 173.958V189.326H65.8435V173.958H64.4835ZM57.7855 179.109V180.282H61.6275V179.109H57.7855ZM61.2365 174.315V188.544H62.5625V174.315H61.2365ZM73.8024 175.488V185.433H80.8574V175.488H73.8024ZM79.4804 176.627V184.294H75.1794V176.627H79.4804ZM83.5944 173.958V189.326H85.0224V173.958H83.5944ZM84.6824 180.095V181.285H87.5384V180.095H84.6824ZM99.3521 173.958V182.662H100.763V173.958H99.3521ZM100.372 177.698V178.871H103.041V177.698H100.372ZM95.1021 174.944V175.573C95.1021 178.395 92.8071 180.622 88.8291 181.71L89.3731 182.832C93.8951 181.608 96.5981 178.82 96.5981 174.944H95.1021ZM89.4921 174.944V176.083H95.8841V174.944H89.4921ZM91.0901 183.393V189.122H100.763V183.393H91.0901ZM99.3691 184.532V187.966H92.4841V184.532H99.3691ZM107.064 186.31L106.967 186.962C106.899 187.42 106.794 187.911 106.653 188.435C106.516 188.958 106.374 189.451 106.225 189.914C106.076 190.377 105.953 190.745 105.856 191.018H104.77C104.822 190.761 104.89 190.421 104.975 189.998C105.059 189.576 105.144 189.103 105.229 188.58C105.317 188.06 105.39 187.529 105.446 186.986L105.518 186.31H107.064ZM125.2 173.975V182.747H126.628V173.975H125.2ZM116.7 183.58V189.122H126.628V183.58H116.7ZM125.234 184.702V187.983H118.077V184.702H125.234ZM118.383 174.774C116.054 174.774 114.371 176.236 114.371 178.361C114.371 180.486 116.054 181.948 118.383 181.948C120.712 181.948 122.378 180.486 122.378 178.361C122.378 176.236 120.712 174.774 118.383 174.774ZM118.383 175.947C119.913 175.947 121.018 176.933 121.018 178.361C121.018 179.789 119.913 180.758 118.383 180.758C116.853 180.758 115.748 179.789 115.748 178.361C115.748 176.933 116.853 175.947 118.383 175.947ZM140.175 173.958V183.223H141.586V173.958H140.175ZM141.195 177.936V179.126H143.864V177.936H141.195ZM131.607 184.039V185.195H140.175V189.326H141.586V184.039H131.607ZM130.298 174.91V182.186H137.404V174.91H136.027V177.307H131.692V174.91H130.298ZM131.692 178.429H136.027V181.064H131.692V178.429ZM147.887 186.31L147.79 186.962C147.722 187.42 147.617 187.911 147.476 188.435C147.34 188.958 147.197 189.451 147.048 189.914C146.899 190.377 146.776 190.745 146.68 191.018H145.593C145.645 190.761 145.714 190.421 145.798 189.998C145.883 189.576 145.967 189.103 146.052 188.58C146.14 188.06 146.213 187.529 146.269 186.986L146.342 186.31H147.887ZM156.622 174.587V179.772H166.958V174.587H156.622ZM165.564 175.726V178.633H157.999V175.726H165.564ZM154.837 181.574V182.713H168.726V181.574H154.837ZM161.093 179.415V182.067H162.487V179.415H161.093ZM161.076 183.682V184.158C161.076 186.198 158.713 187.728 155.908 188.136L156.452 189.241C159.597 188.714 162.283 186.912 162.283 184.158V183.682H161.076ZM161.297 183.682V184.158C161.297 186.912 163.966 188.714 167.111 189.241L167.655 188.136C164.85 187.728 162.504 186.198 162.504 184.158V183.682H161.297ZM171.224 175.063V181.557H172.635V175.063H171.224ZM171.224 181.115V182.305H172.448C174.726 182.305 177.038 182.152 179.622 181.608L179.452 180.452C176.936 180.962 174.641 181.115 172.448 181.115H171.224ZM180.999 173.975V185.076H182.41V173.975H180.999ZM181.968 178.514V179.721H184.688V178.514H181.968ZM172.89 187.83V188.986H182.954V187.83H172.89ZM172.89 183.988V188.374H174.301V183.988H172.89ZM197.283 173.941V189.343H198.694V173.941H197.283ZM190.585 175.131C188.324 175.131 186.692 177.222 186.692 180.486C186.692 183.767 188.324 185.858 190.585 185.858C192.863 185.858 194.495 183.767 194.495 180.486C194.495 177.222 192.863 175.131 190.585 175.131ZM190.585 176.406C192.098 176.406 193.135 178.004 193.135 180.486C193.135 182.985 192.098 184.617 190.585 184.617C189.089 184.617 188.035 182.985 188.035 180.486C188.035 178.004 189.089 176.406 190.585 176.406ZM210.274 174.757V176.321C210.274 178.667 208.778 180.741 206.466 181.591L207.214 182.73C209.781 181.727 211.447 179.279 211.447 176.321V174.757H210.274ZM210.529 174.757V176.423C210.529 179.092 212.212 181.37 214.677 182.288L215.425 181.183C213.215 180.418 211.685 178.497 211.685 176.423V174.757H210.529ZM217.057 173.958V183.274H218.468V173.958H217.057ZM218.077 177.919V179.109H220.746V177.919H218.077ZM213.572 183.699C210.427 183.699 208.523 184.736 208.523 186.504C208.523 188.272 210.427 189.292 213.572 189.292C216.717 189.292 218.621 188.272 218.621 186.504C218.621 184.736 216.717 183.699 213.572 183.699ZM213.572 184.821C215.85 184.821 217.244 185.433 217.244 186.504C217.244 187.575 215.85 188.187 213.572 188.187C211.294 188.187 209.9 187.575 209.9 186.504C209.9 185.433 211.294 184.821 213.572 184.821ZM228.429 182.118V184.77H229.823V182.118H228.429ZM222.173 181.37V182.526H236.062V181.37H222.173ZM223.465 174.434V175.59H234.753V174.434H223.465ZM223.533 178.803V179.959H234.685V178.803H223.533ZM225.794 174.944V179.551H227.205V174.944H225.794ZM231.03 174.944V179.551H232.424V174.944H231.03ZM223.873 184.311V189.122H234.362V184.311H223.873ZM232.985 185.433V187.983H225.267V185.433H232.985ZM47.6787 195.958V203.914H49.0897V195.958H47.6787ZM39.1617 204.696V205.801H47.7127V207.331H39.1957V210.493H40.5727V208.385H49.1067V204.696H39.1617ZM39.1957 210.034V211.156H49.6167V210.034H39.1957ZM40.5047 196.4V197.573C40.5047 199.8 38.9237 201.84 36.6117 202.656L37.3087 203.778C39.9097 202.826 41.6777 200.412 41.6777 197.573V196.4H40.5047ZM40.7597 196.4V197.573C40.7597 200.327 42.5277 202.588 45.1117 203.472L45.8087 202.367C43.5307 201.619 41.9157 199.698 41.9157 197.573V196.4H40.7597ZM56.1943 197.284V200.038C56.1943 202.945 54.3413 205.886 52.0633 206.974L52.9303 208.13C55.4463 206.855 57.3503 203.574 57.3503 200.038V197.284H56.1943ZM56.4323 197.284V200.038C56.4323 203.455 58.3533 206.617 60.8523 207.841L61.7023 206.719C59.4243 205.665 57.5883 202.843 57.5883 200.038V197.284H56.4323ZM63.3003 195.941V211.343H64.7113V195.941H63.3003ZM78.293 195.958V207.195H79.704V195.958H78.293ZM79.262 200.616V201.789H81.982V200.616H79.262ZM74.094 197.148V197.76C74.094 200.718 71.663 203.098 67.787 204.288L68.399 205.444C72.802 204.033 75.59 201.126 75.59 197.148H74.094ZM68.416 197.148V198.304H74.808V197.148H68.416ZM70.116 209.83V210.986H80.384V209.83H70.116ZM70.116 206.056V210.289H71.527V206.056H70.116ZM90.3617 196.927C87.1657 196.927 84.7687 198.627 84.7687 201.177C84.7687 203.744 87.1657 205.427 90.3617 205.427C93.5577 205.427 95.9377 203.744 95.9377 201.177C95.9377 198.627 93.5577 196.927 90.3617 196.927ZM90.3617 198.083C92.7927 198.083 94.5947 199.324 94.5947 201.177C94.5947 203.013 92.7927 204.271 90.3617 204.271C87.9307 204.271 86.1287 203.013 86.1287 201.177C86.1287 199.324 87.9307 198.083 90.3617 198.083ZM83.4257 208.113V209.303H97.3487V208.113H83.4257ZM99.0644 208.266V209.439H112.987V208.266H99.0644ZM105.286 204.968V208.759H106.697V204.968H105.286ZM100.747 197.097V198.236H109.876V200.616H100.798V204.832H102.192V201.755H111.27V197.097H100.747ZM100.798 204.237V205.393H111.627V204.237H100.798ZM130.177 195.958V211.326H131.588V195.958H130.177ZM130.908 201.976V203.166H133.747V201.976H130.908ZM121.626 197.318V200.769C121.626 202.741 121.116 205.427 119.246 206.804L120.181 207.807C122.102 206.311 122.68 203.217 122.68 200.769V197.318H121.626ZM121.932 197.318V200.769C121.932 203.064 122.357 206.43 124.431 207.977L125.213 206.906C123.326 205.444 122.952 202.605 122.952 200.769V197.318H121.932ZM125.893 197.318V200.769C125.893 202.724 125.519 205.478 123.649 206.906L124.431 207.977C126.488 206.464 126.93 203.166 126.93 200.769V197.318H125.893ZM126.199 197.318V200.769C126.199 203.285 126.743 206.362 128.749 207.841L129.633 206.804C127.746 205.444 127.253 202.809 127.253 200.769V197.318H126.199ZM146.819 195.958V211.326H148.179V195.958H146.819ZM140.155 202.231V203.37H144.031V202.231H140.155ZM143.623 196.349V210.544H144.949V196.349H143.623ZM140.342 197.896V198.151C140.342 201.772 138.727 204.832 135.106 207.008L135.939 208.011C140.087 205.546 141.702 201.925 141.702 197.896H140.342ZM135.786 197.896V199.052H140.869V197.896H135.786ZM159.3 197.284V200.038C159.3 202.843 157.549 205.801 155.322 206.923L156.189 208.045C158.62 206.753 160.456 203.438 160.456 200.038V197.284H159.3ZM159.555 197.284V200.038C159.555 203.336 161.34 206.481 163.72 207.756L164.587 206.634C162.411 205.546 160.694 202.741 160.694 200.038V197.284H159.555ZM165.93 195.958V211.326H167.358V195.958H165.93ZM167.018 202.18V203.37H169.874V202.18H167.018ZM177.234 201.449V202.622H180.175V201.449H177.234ZM174.361 197.403V200.327C174.361 202.962 173.103 205.716 170.995 206.957L171.879 208.028C174.123 206.651 175.466 203.54 175.466 200.327V197.403H174.361ZM174.633 197.403V200.276C174.633 203.268 175.874 206.328 178.084 207.688L178.9 206.583C176.877 205.359 175.721 202.741 175.721 200.276V197.403H174.633ZM182.878 195.958V211.326H184.238V195.958H182.878ZM179.767 196.281V210.561H181.093V196.281H179.767ZM190.22 203.863V208.47H191.614V203.863H190.22ZM195.898 203.863V208.47H197.309V203.863H195.898ZM186.82 208.198V209.371H200.743V208.198H186.82ZM193.756 196.927C190.492 196.927 188.163 198.474 188.163 200.888C188.163 203.285 190.492 204.832 193.756 204.832C197.003 204.832 199.332 203.285 199.332 200.888C199.332 198.474 197.003 196.927 193.756 196.927ZM193.756 198.049C196.221 198.049 197.972 199.171 197.972 200.888C197.972 202.588 196.221 203.71 193.756 203.71C191.291 203.71 189.523 202.588 189.523 200.888C189.523 199.171 191.291 198.049 193.756 198.049ZM204.796 197.636L204.676 206.523H203.275L203.154 197.636H204.796ZM203.975 210.097C203.678 210.097 203.422 209.99 203.209 209.777C202.995 209.563 202.889 209.308 202.889 209.01C202.889 208.712 202.995 208.457 203.209 208.243C203.422 208.03 203.678 207.923 203.975 207.923C204.273 207.923 204.529 208.03 204.742 208.243C204.955 208.457 205.062 208.712 205.062 209.01C205.062 209.207 205.012 209.388 204.911 209.553C204.814 209.718 204.684 209.851 204.519 209.952C204.358 210.048 204.177 210.097 203.975 210.097Z" fill="#1C1C1E"/>
<defs>
<clipPath id="clip0_1503_27056">
<rect width="80" height="110" fill="white" transform="translate(81)"/>
</clipPath>
</defs>
</svg>
