<svg width="190" height="48" viewBox="0 0 190 48" fill="none" xmlns="http://www.w3.org/2000/svg">
<g opacity="0.9">
<rect width="190" height="40" rx="4" fill="#1C1C1E"/>
<path d="M26.387 25V24.3675L29.4755 20.896C29.8786 20.4405 30.2033 20.0511 30.4495 19.728C30.6957 19.4048 30.8742 19.1063 30.985 18.8324C31.0989 18.5585 31.1559 18.2738 31.1559 17.9783C31.1559 17.6183 31.0712 17.3043 30.9019 17.0366C30.7358 16.7657 30.5065 16.5549 30.2141 16.4041C29.9217 16.2533 29.5924 16.1779 29.2262 16.1779C28.8384 16.1779 28.4983 16.261 28.2059 16.4272C27.9166 16.5934 27.692 16.8211 27.5319 17.1104C27.3719 17.3997 27.2919 17.7321 27.2919 18.1076H26.4655C26.4655 17.5844 26.5855 17.1212 26.8256 16.718C27.0687 16.3118 27.3996 15.9933 27.8181 15.7624C28.2398 15.5316 28.7168 15.4162 29.2492 15.4162C29.7755 15.4162 30.2433 15.5301 30.6527 15.7578C31.062 15.9825 31.3836 16.2887 31.6175 16.6765C31.8514 17.0643 31.9684 17.4982 31.9684 17.9783C31.9684 18.3261 31.9068 18.6631 31.7837 18.9893C31.6637 19.3156 31.4559 19.6787 31.1605 20.0788C30.865 20.4789 30.4557 20.9683 29.9325 21.5469L27.5873 24.1644V24.2244H32.2638V25H26.387ZM33.919 23.635V24.532H44.566V23.635H33.919ZM38.69 20.983V24.116H39.769V20.983H38.69ZM38.69 16.719V16.979C38.69 18.799 36.792 20.164 34.491 20.528L34.907 21.386C37.455 20.944 39.639 19.384 39.639 16.979V16.719H38.69ZM38.833 16.719V16.979C38.833 19.384 41.004 20.944 43.552 21.386L43.968 20.528C41.667 20.164 39.769 18.799 39.769 16.979V16.719H38.833ZM34.894 16.108V17.005H43.552V16.108H34.894ZM38.69 14.509V16.433H39.769V14.509H38.69ZM50.0153 15.315V20.762H55.4103V15.315H50.0153ZM54.3573 16.186V19.891H51.0683V16.186H54.3573ZM57.5683 14.249V22.868H58.6473V14.249H57.5683ZM58.3093 17.837V18.734H60.3893V17.837H58.3093ZM51.3283 24.87V25.754H59.1803V24.87H51.3283ZM51.3283 22.049V25.247H52.4073V22.049H51.3283ZM66.2513 18.825V19.722H68.4743V18.825H66.2513ZM70.4373 14.262V26.014H71.4773V14.262H70.4373ZM68.1103 14.509V25.429H69.1373V14.509H68.1103ZM64.1323 15.237C62.6113 15.237 61.6363 16.81 61.6363 19.332C61.6363 21.854 62.6113 23.427 64.1323 23.427C65.6533 23.427 66.6413 21.854 66.6413 19.332C66.6413 16.81 65.6533 15.237 64.1323 15.237ZM64.1323 16.238C65.0683 16.238 65.6533 17.434 65.6533 19.332C65.6533 21.23 65.0683 22.426 64.1323 22.426C63.2093 22.426 62.6243 21.23 62.6243 19.332C62.6243 17.434 63.2093 16.238 64.1323 16.238ZM80.4495 21.308V23.245H81.5415V21.308H80.4495ZM85.5975 14.262V26.014H86.6765V14.262H85.5975ZM77.3165 23.778C79.4875 23.778 82.3215 23.752 84.9345 23.31L84.8565 22.517C82.3215 22.842 79.3965 22.868 77.1735 22.881L77.3165 23.778ZM77.4205 15.692V16.563H84.5575V15.692H77.4205ZM80.9825 17.239C79.3055 17.239 78.1615 18.097 78.1615 19.41C78.1615 20.736 79.3055 21.581 80.9825 21.581C82.6725 21.581 83.8165 20.736 83.8165 19.41C83.8165 18.097 82.6725 17.239 80.9825 17.239ZM80.9825 18.071C82.0485 18.071 82.7895 18.604 82.7895 19.41C82.7895 20.216 82.0485 20.749 80.9825 20.749C79.9295 20.749 79.1885 20.216 79.1885 19.41C79.1885 18.604 79.9295 18.071 80.9825 18.071ZM80.4495 14.262V16.173H81.5285V14.262H80.4495ZM92.3955 20.177V22.79H93.4745V20.177H92.3955ZM97.6085 14.262V23.206H98.6875V14.262H97.6085ZM90.6665 24.87V25.754H98.9735V24.87H90.6665ZM90.6665 22.335V25.117H91.7455V22.335H90.6665ZM89.1455 20.58C91.2775 20.58 94.1245 20.541 96.6595 20.138L96.5815 19.345C94.0855 19.67 91.1735 19.696 89.0025 19.696L89.1455 20.58ZM95.2165 21.204V21.997H97.8815V21.204H95.2165ZM92.8245 14.743C91.0955 14.743 89.9255 15.549 89.9255 16.784C89.9255 18.032 91.0955 18.838 92.8245 18.838C94.5405 18.838 95.7105 18.032 95.7105 16.784C95.7105 15.549 94.5405 14.743 92.8245 14.743ZM92.8245 15.549C93.9165 15.549 94.6835 16.03 94.6835 16.784C94.6835 17.538 93.9165 18.019 92.8245 18.019C91.7195 18.019 90.9525 17.538 90.9525 16.784C90.9525 16.03 91.7195 15.549 92.8245 15.549ZM108.969 14.249V26.014H110.061V14.249H108.969ZM109.762 19.02V19.917H111.933V19.02H109.762ZM105.966 15.523V15.692C105.966 18.799 104.341 21.308 101.091 22.959L101.689 23.791C105.485 21.88 107.019 18.864 107.019 15.523H105.966ZM101.637 15.523V16.407H106.525V15.523H101.637ZM121.526 14.262V20.567H122.618V14.262H121.526ZM115.039 21.152V25.858H122.618V21.152H121.552V22.582H116.105V21.152H115.039ZM116.105 23.44H121.552V24.987H116.105V23.44ZM116.313 14.821C114.532 14.821 113.245 15.926 113.245 17.525C113.245 19.137 114.532 20.242 116.313 20.242C118.094 20.242 119.368 19.137 119.368 17.525C119.368 15.926 118.094 14.821 116.313 14.821ZM116.313 15.718C117.483 15.718 118.328 16.459 118.328 17.525C118.328 18.591 117.483 19.332 116.313 19.332C115.143 19.332 114.298 18.591 114.298 17.525C114.298 16.459 115.143 15.718 116.313 15.718ZM128.449 15.1023L125.402 26.4219H124.631L127.678 15.1023H128.449ZM129.439 23.674V24.571H140.086V23.674H129.439ZM134.197 21.152V24.051H135.276V21.152H134.197ZM130.726 15.133V16.004H137.707V17.824H130.765V21.048H131.831V18.695H138.773V15.133H130.726ZM130.765 20.593V21.477H139.046V20.593H130.765ZM142.542 15.51V16.381H150.108V15.51H142.542ZM141.398 23.401V24.298H152.019V23.401H141.398ZM149.536 15.51V16.68C149.536 18.136 149.536 19.891 149.068 22.296L150.147 22.4C150.589 19.865 150.589 18.188 150.589 16.68V15.51H149.536ZM161.898 14.275V22.855H162.99V14.275H161.898ZM155.437 24.87V25.754H163.341V24.87H155.437ZM155.437 21.971V25.169H156.503V21.971H155.437ZM156.685 15.081C154.93 15.081 153.617 16.277 153.617 17.98C153.617 19.67 154.93 20.879 156.685 20.879C158.44 20.879 159.74 19.67 159.74 17.98C159.74 16.277 158.44 15.081 156.685 15.081ZM156.685 16.017C157.829 16.017 158.7 16.823 158.7 17.98C158.7 19.124 157.829 19.93 156.685 19.93C155.541 19.93 154.67 19.124 154.67 17.98C154.67 16.823 155.541 16.017 156.685 16.017Z" fill="white"/>
<path d="M89 40H101L95 48L89 40Z" fill="#1C1C1E"/>
</g>
</svg>
